<?xml version="1.0" encoding="UTF-8"?>
<svg id="_レイヤー_2" data-name="レイヤー 2" xmlns="http://www.w3.org/2000/svg" viewBox="0 0 107.32762 107.32762">
  <defs>
    <style>
      .cls-1 {
        fill: #fff;
      }

      .cls-2 {
        fill: #4cb99c;
      }
    </style>
  </defs>
  <g id="_レイヤー_1-2" data-name="レイヤー 1">
    <g>
      <path class="cls-2" d="M78.70032,42.07065c-1.77576-.21943-3.52691-.29469-5.2441-.23675-4.40901.14878-8.11129-3.5535-7.96251-7.96251.05795-1.71719-.01731-3.46833-.23675-5.2441C63.3186,12.94097,50.02602.72742,34.23566.03259,14.97631-.81488-.81488,14.97631.03259,34.23566c.69483,15.79036,12.90838,29.08293,28.59471,31.02131,1.77576.21943,3.52691.29469,5.2441.23675,4.40901-.14878,8.11129,3.5535,7.96251,7.96251-.05795,1.71719.01731,3.46833.23675,5.2441,1.93838,15.68633,15.23095,27.89988,31.02131,28.59471,19.25935.84747,35.05054-14.94372,34.20307-34.20307-.69483-15.79036-12.90838-29.08293-28.59471-31.02131Z"/>
      <g>
        <path class="cls-1" d="M15.74608,28.05415h33.86159c1.04745,0,1.89785.8504,1.89785,1.89785v5.08377c0,1.04745-.8504,1.89785-1.89785,1.89785H15.51286c-1.04745,0-1.89785-.8504-1.89785-1.89785v-4.85055c0-1.17617.9549-2.13108,2.13108-2.13108Z" transform="translate(.06637 65.05415) rotate(-90)"/>
        <path class="cls-1" d="M15.74608,28.05415h33.86159c1.04745,0,1.89785.8504,1.89785,1.89785h0c0,3.85327-3.12836,6.98163-6.98162,6.98163H15.51286c-1.04745,0-1.89785-.8504-1.89785-1.89785v-4.85055c0-1.17617.9549-2.13108,2.13108-2.13108Z"/>
      </g>
      <path class="cls-1" d="M59.06932,69.94017h31.7834c1.06505,0,1.92974.86469,1.92974,1.92974h0c0,4.26335-3.46129,7.72465-7.72464,7.72465h-26.37581c-1.06505,0-1.92974-.86469-1.92974-1.92974v-5.40759c0-1.27882,1.03824-2.31705,2.31705-2.31705Z"/>
    </g>
  </g>
</svg>