<?xml version="1.0" encoding="UTF-8"?>
<svg id="_レイヤー_2" data-name="レイヤー 2" xmlns="http://www.w3.org/2000/svg" viewBox="0 0 313.73488 77.00154">
  <defs>
    <style>
      .cls-1 {
        fill: #474747;
      }

      .cls-2 {
        fill: #fff;
      }

      .cls-3 {
        fill: #4cb99c;
      }
    </style>
  </defs>
  <g id="_レイヤー_1-2" data-name="レイヤー 1">
    <g>
      <g>
        <path class="cls-1" d="M137.60361,19.80497h-19.32471v-11.25537c0-1.56544-1.26904-2.83447-2.83447-2.83447h-4.87061c-1.56544,0-2.83447,1.26904-2.83447,2.83447v11.25537h-15.96289c-1.56544,0-2.83447,1.26904-2.83447,2.83447v5.4668c0,1.56544,1.26904,2.83447,2.83447,2.83447h15.31477c.32418,0,.58571.27653.57076.60037-.66879,14.48937-5.68874,23.94886-15.29118,28.8614-1.30313.66667-1.84294,2.25124-1.28624,3.60502l2.04932,4.98351c.30127.73291.89551,1.30615,1.63867,1.58057.31787.11768.65088.17578.98291.17578.44385,0,.88672-.104,1.29004-.31055,13.31601-6.80722,20.42804-19.9013,21.16903-38.95003.01179-.30301.2583-.54606.56153-.54606h10.55505c.31311,0,.56693.25382.56693.56693v17.69528c0,6.75684-2.85889,9.64014-9.55908,9.64014,0,0-.2207-.00098-.22949-.00098-.74707,0-1.46436.29492-1.99512.8208-.53711.53223-.83936,1.25732-.83936,2.01367v5.4668c0,1.54819,1.26667,2.82377,2.81483,2.83463l.39611.00278c5.79688,0,10.55908-1.77344,14.14014-5.25732,3.85645-3.69775,5.81201-8.91943,5.81201-15.52051v-26.56348c0-1.56544-1.26904-2.83447-2.83447-2.83447Z"/>
        <path class="cls-1" d="M198.49521,7.85819l-4.80176-2.00195c-.34961-.146-.7207-.21826-1.09082-.21826-.41211,0-.82324.08936-1.2041.26807-.72363.33984-1.27051.96924-1.50488,1.73291-2.49219,8.10254-7.71094,14.7334-15.95703,20.27246-7.5219,5.06501-15.50395,7.96136-23.72552,8.60821-1.54168.12129-2.72574,1.46166-2.62897,3.00507l.34277,5.4668c.04736.7583.39697,1.46533.9707,1.96338.51758.44922,1.17773.69385,1.8584.69385.07373,0,.14746-.00293.22119-.0083,7.32156-.57393,14.48727-2.59708,21.37241-6.02774.37661-.18765.81753.07912.81753.49989v26.41651c0,1.56544,1.26904,2.83447,2.83447,2.83447h4.94036c1.56335,0,2.83154-1.26575,2.83454-2.8291l.06492-33.77452c.00032-.16852.07786-.32781.20888-.4338,7.91426-6.40217,13.31615-14.13985,16.06666-23.02069.43109-1.3919-.27484-2.88654-1.61976-3.44726Z"/>
        <path class="cls-1" d="M251.0704,10.02665h-31.00879c-1.1573,0-2.18683.70655-2.62997,1.77565-3.48702,8.41264-8.07845,16.22992-13.64785,23.23443-.91516,1.15098-.82296,2.80265.24738,3.81095l3.8094,3.58861c.51068.48108,1.17197.79127,1.87292.82107.11474.00488.22788.00314.34376-.00522.81943-.05908,1.56541-.50851,2.07354-1.15407,4.92476-6.2567,9.14228-12.97944,12.56081-20.01895.24913-.51302.76477-.83957,1.33508-.83957h14.85385c.92298,0,1.63912.83194,1.4765,1.74048-.90434,5.0526-2.39907,9.84323-4.46862,14.31893-.1513.3272-.57023.43089-.85986.21627l-11.09488-8.22148c-.49219-.36475-1.08496-.55713-1.6875-.55713-.19141,0-.38379.01904-.57422.05859-.79102.16357-1.47363.65674-1.87891,1.35498l-2.6758,4.62064c-.72198,1.24673-.39384,2.83672.76272,3.69576l11.37063,8.44563c.26697.19829.3106.58884.09119.83875-4.99901,5.69403-11.44934,9.35865-19.22072,10.90941-1.4953.29838-2.50063,1.70565-2.2704,3.21295l.82324,5.38965c.11719.76758.54395,1.45312,1.18066,1.89746.47949.33398,1.0459.50879,1.62109.50879.18945,0,.37988-.01904.56836-.05762,12.34277-2.52539,22.24805-9.30518,29.44727-20.15967,6.62402-10.07373,10.12793-22.36572,10.41309-36.53369.01562-.76172-.27637-1.49707-.80957-2.04102-.5332-.54443-1.2627-.85059-2.02441-.85059Z"/>
        <path class="cls-1" d="M312.97665,59.51493l-16.32837-17.56192c-.17124-.18417-.19776-.45791-.06711-.67279,4.74851-7.81004,7.87363-16.43523,9.29978-25.6774.31492-1.71785-1.21054-3.33704-2.91283-3.3277-9.28522-.01024-37.13893-.01605-37.14088-.01605-.75098,0-1.4707.29785-2.00195.82812-.5332.53174-.83301,1.25342-.83301,2.00635v5.62109c0,1.56544,1.26904,2.83447,2.83447,2.83447h26.32736c.39136,0,.67095.38991.54124.75915-2.3961,6.82064-6.03062,13.08132-10.84662,18.66907-5.46449,6.42424-12.12401,11.54597-19.79189,15.22295-1.3529.64876-1.95952,2.24295-1.38878,3.63056l2.05859,5.00488c.2959.7207.87598,1.2876,1.60254,1.56738.32812.12646.67383.18896,1.01855.18896.41895,0,.83594-.09229,1.22168-.27686,8.79168-4.19894,16.42331-9.99389,22.73189-17.25392.21979-.25293.60697-.26229.83565-.01738l15.32894,16.41681c.53711.5752,1.28809.8999,2.07227.8999.01181,0,.02362-.00008.03543-.00021.83427-.00895,1.62154-.38811,2.15206-1.03203l3.36232-4.08104c.90332-1.09619.85547-2.69189-.11133-3.73242Z"/>
      </g>
      <g>
        <path class="cls-3" d="M56.46306,30.18333c-1.27401-.15743-2.53036-.21143-3.76235-.16985-3.16321.10674-5.81939-2.54944-5.71265-5.71265.04157-1.23199-.01242-2.48834-.16985-3.76235C45.42753,9.28442,35.89086.52188,24.56216.02338,10.74466-.58463-.58463,10.74466.02338,24.56216c.4985,11.32869,9.26103,20.86537,20.51509,22.25604,1.27401.15743,2.53036.21143,3.76235.16985,3.16321-.10674,5.81939,2.54944,5.71265,5.71265-.04157,1.23199.01242,2.48834.16985,3.76235,1.39068,11.25406,10.92735,20.0166,22.25604,20.51509,13.8175.60801,25.14679-10.72128,24.53878-24.53878-.4985-11.32869-9.26103-20.86537-20.51509-22.25604Z"/>
        <g>
          <path class="cls-2" d="M11.29693,20.12728h24.29378c.75149,0,1.3616.61011,1.3616,1.3616v3.64732c0,.75149-.61011,1.3616-1.3616,1.3616H11.1296c-.75149,0-1.3616-.61011-1.3616-1.3616v-3.48c0-.84384.68509-1.52893,1.52893-1.52893Z" transform="translate(.04762 46.6727) rotate(-90)"/>
          <path class="cls-2" d="M11.29693,20.12728h24.29378c.75149,0,1.3616.61011,1.3616,1.3616h0c0,2.7645-2.24442,5.00892-5.00892,5.00892H11.1296c-.75149,0-1.3616-.61011-1.3616-1.3616v-3.48c0-.84384.68509-1.52893,1.52893-1.52893Z"/>
        </g>
        <path class="cls-2" d="M42.37892,50.17814h22.8028c.76412,0,1.38448.62037,1.38448,1.38448h0c0,3.05872-2.48328,5.542-5.54199,5.542h-18.92316c-.76412,0-1.38448-.62037-1.38448-1.38448v-3.87964c0-.91748.74488-1.66236,1.66236-1.66236Z"/>
      </g>
    </g>
  </g>
</svg>